# xmcd
#
# Track frame offsets:
#	150
#	19518
#	42482
#	65062
#	90623
#	116845
#	135083
#	173505
#	191398
#	223712
#
# Disc length: 3328 seconds
#
# Revision: 1
# Processed by: cddbd v1.4PL0 Copyright (c) Steve Scherf et al.
# Submitted via: audiograbber 1.81.02
#
DISCID=820cfe0a
DTITLE=Bobby Mack - Live at J&J blues bar
DYEAR=1997
DGENRE=Electric-Blues
TTITLE0=Ship's Going Down
TTITLE1=Honeytrap
TTITLE2=I'm Gonna Love You
TTITLE3=That's Alright
TTITLE4=So Low Down
TTITLE5=Somebody's Reading my Mail
TTITLE6=Hip Shake
TTITLE7=I'm Tore Down
TTITLE8=Had My Fun
TTITLE9=I can't Hold Out
EXTD=
EXTT0=
EXTT1=
EXTT2=
EXTT3=
EXTT4=
EXTT5=
EXTT6=
EXTT7=
EXTT8=
EXTT9=
PLAYORDER=
